<?xml version="1.0" encoding="UTF-8"?>
<svg width="988px" height="300px" viewBox="0 0 988 300" version="1.1" xmlns="http://www.w3.org/2000/svg" xmlns:xlink="http://www.w3.org/1999/xlink">
    <!-- Generator: Sketch 52.5 (67469) - http://www.bohemiancoding.com/sketch -->
    <title>Slice</title>
    <desc>Created with Sketch.</desc>
    <defs>
        <linearGradient x1="61.504209%" y1="0%" x2="61.5042066%" y2="100%" id="linearGradient-1">
            <stop stop-color="#4F5E70" offset="0%"></stop>
            <stop stop-color="#29323C" offset="100%"></stop>
        </linearGradient>
    </defs>
    <g id="品牌" stroke="none" stroke-width="1" fill="none" fill-rule="evenodd">
        <g id="黑1-copy-2">
            <path d="M188,30 L83,90 L83,135 L83,150 L188,210 L270.5,162.857344 L270.5,196.942969 L188,244.085625 L83,183.984375 L83,210 L188,270 L293,210 L293,123.984375 L188,184.085625 L105.5,136.942734 L105.5,135 L105.5,103.057266 L105.675078,102.957422 L188,150 L293,90 L188,30 Z M128.350156,90 L188,55.9146094 L247.649844,90 L188,124.085391 L128.350156,90 Z" id="Page-1" fill="url(#linearGradient-1)"></path>
            <g id="Group" transform="translate(363.000000, 126.000000)" fill="url(#linearGradient-1)">
                <polygon id="Fill-2" points="48.2420382 62 0 62 0 49.9444444 36.1815287 49.9444444 36.1815287 37.8888889 0 37.8888889 0 1.72222222 48.2420382 1.72222222 48.2420382 13.7777778 12.0605096 13.7777778 12.0605096 25.8333333 48.2420382 25.8333333"></polygon>
                <path d="M72.3630573,51.6666667 L96.4840764,51.6666667 L96.4840764,13.7777778 L72.3630573,13.7777778 L72.3630573,51.6666667 Z M60.3025478,62 L108.544586,62 L108.544586,1.72222222 L60.3025478,1.72222222 L60.3025478,62 Z" id="Fill-3"></path>
                <polygon id="Combined-Shape-Copy-2" fill-rule="nonzero" points="475.528662 13.7777778 475.528662 1.72222222 430.732484 1.72222222 430.732484 62 475.528662 62 475.528662 49.9444444 444.515924 49.9444444 444.515924 13.7777778"></polygon>
                <path d="M499.649682,41.1435052 L499.649682,62 L487.589172,62 L487.589172,1.72222222 L499.649682,1.72222222 L499.649682,22.1530223 L522.047771,1.72222222 L539.27707,1.72222222 L506.005507,31.7416409 L541,62 L523.770701,62 L499.649682,41.1435052 Z" id="Combined-Shape-Copy"></path>
                <polygon id="Fill-4" points="168.847134 13.7777778 168.847134 1.72222222 120.605096 1.72222222 120.605096 62 132.665605 62 132.665605 39.6111111 168.847134 39.6111111 168.847134 27.5555556 132.665605 27.5555556 132.665605 13.7777778"></polygon>
                <path d="M337.694268,13.7777778 L337.694268,62 L323.910828,62 L323.910828,13.7777778 L303.235669,13.7777778 L303.235669,1.72222222 L358.369427,1.72222222 L358.369427,13.7777778 L337.694268,13.7777778 Z" id="Combined-Shape-Copy-6"></path>
                <polygon id="Fill-5" points="168.847134 62 182.630573 62 199.859873 25.8333333 217.089172 62 230.872611 62 199.859873 0"></polygon>
                <polygon id="Fill-2-Copy" points="291.175159 62 242.933121 62 242.933121 49.9444444 279.11465 49.9444444 279.11465 37.8888889 242.933121 37.8888889 242.933121 1.72222222 291.175159 1.72222222 291.175159 13.7777778 254.993631 13.7777778 254.993631 25.8333333 291.175159 25.8333333"></polygon>
                <polygon id="Fill-5-Copy-2" points="356.646497 62 370.429936 62 387.659236 25.8333333 404.888535 62 418.671975 62 387.659236 0"></polygon>
            </g>
            <text id="TM" font-family="ArialMT, Arial" font-size="24" font-weight="normal" fill="#35404C">
                <tspan x="912" y="52">TM</tspan>
            </text>
        </g>
    </g>
</svg>